<?xml version="1.0" standalone="no"?>
<!DOCTYPE svg PUBLIC "-//W3C//DTD SVG 20010904//EN"
 "http://www.w3.org/TR/2001/REC-SVG-20010904/DTD/svg10.dtd">
<svg version="1.0" xmlns="http://www.w3.org/2000/svg"
 width="260.000000pt" height="260.000000pt" viewBox="0 0 260.000000 260.000000"
 preserveAspectRatio="xMidYMid meet">
<metadata>
Created by potrace 1.14, written by Peter Selinger 2001-2017
</metadata>
<g transform="translate(0.000000,260.000000) scale(0.100000,-0.100000)"
fill="#000000" stroke="none">
<path d="M0 1300 l0 -1300 1300 0 1300 0 0 1300 0 1300 -1300 0 -1300 0 0
-1300z m1002 573 c2 -213 7 -337 13 -339 6 -2 111 148 235 333 124 184 230
337 235 339 6 3 124 3 262 2 l252 -3 -270 -367 -269 -366 324 -539 325 -538
-257 -3 c-248 -2 -257 -2 -272 18 -8 11 -100 169 -204 351 -156 272 -191 328
-202 317 -7 -7 -49 -65 -93 -128 l-81 -114 0 -223 0 -223 -235 0 -235 0 0 910
0 910 235 0 235 0 2 -337z"/>
</g>
</svg>
